<?xml version="1.0" encoding="UTF-8"?>
<!DOCTYPE svg PUBLIC "-//W3C//DTD SVG 1.1//EN" "http://www.w3.org/Graphics/SVG/1.1/DTD/svg11.dtd">
<!-- Creator: CorelDRAW X7 -->
<svg xmlns="http://www.w3.org/2000/svg" xml:space="preserve" width="84.6666mm" height="84.6666mm" version="1.1" style="shape-rendering:geometricPrecision; text-rendering:geometricPrecision; image-rendering:optimizeQuality; fill-rule:evenodd; clip-rule:evenodd"
viewBox="0 0 8467 8467"
 xmlns:xlink="http://www.w3.org/1999/xlink">
 <defs>
  <style type="text/css">
   <![CDATA[
    .fil0 {fill:#00AA13;fill-rule:nonzero}
   ]]>
  </style>
 </defs>
 <g id="Layer_x0020_1">
  <metadata id="CorelCorpID_0Corel-Layer"/>
  <path class="fil0" d="M6024 4382l3 1 26 27c198,197 296,458 296,719l1 0c0,261 -99,521 -297,720l0 0 0 0c-198,198 -458,297 -719,297l0 -1c-261,0 -522,-99 -719,-296l0 0 0 0 0 -1c-198,-198 -297,-458 -297,-719l1 0c0,-81 9,-162 28,-242l623 600 0 -1 4 3 0 0 0 0 0 0c99,100 230,150 360,150l0 -1c131,0 261,-50 360,-149l0 0 0 0c99,-98 148,-229 148,-360l1 0c0,-130 -49,-260 -148,-359l-1 -1c-99,-99 -229,-148 -360,-148l0 -1c-130,0 -260,49 -359,148l-1 1 0 0c-3,3 -6,6 -9,9l-367 -352 17 -16c197,-198 458,-296 719,-296l0 -1c248,0 496,90 690,269z"/>
  <path class="fil0" d="M3823 4382l2 1 27 27c197,197 296,458 296,719l1 0c0,82 -10,163 -29,243l-623 -600 -1 1 -2 -3 -1 -1c-99,-99 -230,-148 -360,-148l0 -1c-130,0 -260,49 -360,148l-1 1 0 0c-99,100 -149,230 -149,360l1 0c0,131 50,262 148,360l0 0 0 0 0 0c100,100 230,150 361,150l0 -1c130,0 261,-50 360,-149l0 0 0 0c3,-3 6,-6 9,-9l366 352c-5,6 -11,11 -16,17l0 0 0 0c-198,198 -459,297 -719,297l0 -1c-262,0 -522,-99 -720,-296l0 0 0 0 0 -1c-198,-198 -297,-458 -297,-719l1 0c0,-248 90,-497 268,-690l2 -2 26 -27c198,-198 458,-296 720,-296l0 -1c248,0 496,90 690,269z"/>
  <polygon class="fil0" points="3848,4407 4970,5486 4619,5852 3497,4772 "/>
  <path class="fil0" d="M6024 4382l3 1 26 27c198,197 296,458 296,719l1 0c0,261 -99,521 -297,720l0 0 0 0c-198,198 -458,297 -719,297l0 -1c-261,0 -522,-99 -719,-296l0 0 0 0 0 -1c-198,-198 -297,-458 -297,-719l1 0c0,-81 9,-162 28,-242l623 600 0 -1 4 3 0 0 0 0 0 0c99,100 230,150 360,150l0 -1c131,0 261,-50 360,-149l0 0 0 0c99,-98 148,-229 148,-360l1 0c0,-130 -49,-260 -148,-359l-1 -1c-99,-99 -229,-148 -360,-148l0 -1c-130,0 -260,49 -359,148l-1 1 0 0c-3,3 -6,6 -9,9l-367 -352 17 -16c197,-198 458,-296 719,-296l0 -1c248,0 496,90 690,269z"/>
  <path class="fil0" d="M4233 1799c290,0 552,117 741,307 190,190 307,452 307,741 0,289 -117,551 -307,741 -189,189 -451,307 -741,307 -289,0 -551,-118 -741,-307 -189,-190 -306,-452 -306,-741 0,-289 117,-551 306,-741 190,-190 452,-307 741,-307zm396 652c-101,-101 -241,-164 -396,-164 -154,0 -294,63 -395,164 -102,101 -164,241 -164,396 0,154 62,294 164,396 101,101 241,163 395,163 155,0 295,-62 396,-163 101,-102 164,-242 164,-396 0,-155 -63,-295 -164,-396z"/>
 </g>
</svg>
